# xmcd CD database file generated by OrangeCD 4.2
#
# Track frame offsets:
#	150
#	13212
#	25572
#	43572
#	57382
#	65907
#	84642
#	99610
#	110990
#	123322
#	141987
#	153142
#	173315
#	187945
#
# Disc length: 2658 seconds
#
# Revision: 0
# Processed by: cddbd v1.4PL0 Copyright (c) Steve Scherf et al.
# Submitted via: OrangeCD 4.2
#
DISCID=b90a600e
DTITLE=Diagonais, os - Os Diagonais
DYEAR=1971
DGENRE=Soul
TTITLE0=Sai de Lado
TTITLE1=Adivinhe Meu Pensamento
TTITLE2=Vou Perder Você
TTITLE3=Todo Meu Amor
TTITLE4=Atrás do Sorriso
TTITLE5=Eliana
TTITLE6=Nem Adeus
TTITLE7=Não Vou Chorar
TTITLE8=Novos Planos para o Verão
TTITLE9=Cada um na Sua
TTITLE10=O Mal Passará
TTITLE11=Tema de Fanny
TTITLE12=Lana
TTITLE13=Você Fingiu
EXTD=
EXTT0=
EXTT1=
EXTT2=
EXTT3=
EXTT4=
EXTT5=
EXTT6=
EXTT7=
EXTT8=
EXTT9=
EXTT10=
EXTT11=
EXTT12=
EXTT13=
PLAYORDER=
